<svg xmlns="http://www.w3.org/2000/svg"
        viewBox="0 0 1600 1326.6667"
        height="1326.6667"
        width="1600"
        fill="#fff"
        version="1.1"
>
    <defs>
        <linearGradient
                id="linearGradient30"
                gradientTransform="matrix(0,955.74786,955.74786,0,600,19.62607)"
                gradientUnits="userSpaceOnUse"
                y2="0"
                x2="1"
                y1="0"
                x1="0">
            <stop
                    id="stop24"
                    offset="0"
                    style="stop-opacity:1;stop-color:#b501f2"/>
            <stop
                    id="stop26"
                    offset="0.80433699"
                    style="stop-opacity:1;stop-color:#6200ea"/>
            <stop
                    id="stop28"
                    offset="1"
                    style="stop-opacity:1;stop-color:#6200ea"/>
        </linearGradient>
    </defs>
    <g
            transform="matrix(1.3333333,0,0,-1.3333333,0,1326.6667)"
            id="g10">
        <g
                id="g12">
            <g
                    id="g14">
                <g
                        id="g20">
                    <g
                            id="g22">
                        <path
                                id="path32"
                                d="M 914.743,880.142 C 914.54,879.979 893.957,863.484 871.044,839.6 v 0 l -74.506,-10.956 c -0.812,-0.391 -1.566,-0.756 -2.378,-1.146 v 0 L 735.207,772.38 c -0.758,-0.716 -1.235,-1.66 -1.358,-2.669 v 0 c -0.058,-0.435 -0.048,-0.861 0.033,-1.306 v 0 c 0.256,-1.469 1.228,-2.703 2.587,-3.294 v 0 l 70.021,-30.302 c -1.635,-9.791 -1.283,-18.979 0.673,-27.566 v 0 L 714.651,635.664 H 248.545 c -4.65,0 -9.247,-1.048 -13.437,-3.068 v 0 l -95.762,-46.013 c -13.26,11.239 -30.39,18.049 -49.134,18.049 v 0 c -42.021,0 -76.083,-34.063 -76.083,-76.08 v 0 c 0,-42.018 34.062,-76.082 76.083,-76.082 v 0 c 42.014,0 76.076,34.064 76.076,76.082 v 0 c 0,0.703 -0.085,1.384 -0.106,2.084 v 0 l 89.428,42.965 h 469.645 c 6.873,0 13.555,2.287 18.984,6.488 v 0 l 102.588,79.379 c 8.22,-2.953 21.342,-5.98 39.535,-4.949 v 0 l 17.055,-74.58 c 0.332,-1.454 1.374,-2.633 2.769,-3.148 v 0 c 1.389,-0.524 2.951,-0.294 4.153,0.588 v 0 l 64.955,47.902 c 0.545,0.77 1.058,1.483 1.604,2.254 v 0 l 22.159,71.066 c 17.541,11.692 35.553,25.598 53.569,41.342 v 0 c 103.716,90.659 127.329,168.764 132.176,207.248 v 0 c 1.6,12.667 0.936,19.844 0.915,20.147 v 0 c -0.171,1.78 -1.401,3.277 -3.111,3.801 v 0 c -1.502,0.456 -14.664,4.235 -37.573,4.235 v 0 c -44.575,0 -126.046,-14.308 -230.29,-95.232 m 65.5,-105.337 c -18.237,5.188 -31.519,22.3 -32.026,41.254 v 0 c -0.807,30.415 27.708,52.552 56.975,44.227 v 0 c 18.237,-5.191 31.518,-22.301 32.021,-41.254 v 0 c 0.696,-26.031 -20.091,-45.995 -44.44,-45.995 v 0 c -4.104,0 -8.309,0.567 -12.53,1.768 m -596.358,45.52 H 353.302 248.545 c -17.136,0 -31.032,-13.896 -31.032,-31.031 v 0 c 0,-17.136 13.896,-31.032 31.032,-31.032 v 0 h 104.757 30.583 210.273 c 17.135,0 31.032,13.896 31.032,31.032 v 0 c 0,17.135 -13.897,31.031 -31.032,31.031 v 0 z M 859.205,451.003 H 830.622 248.545 c -17.136,0 -31.032,-13.897 -31.032,-31.032 v 0 c 0,-17.136 13.896,-31.032 31.032,-31.032 v 0 h 582.077 28.583 153.267 c 17.135,0 31.032,13.896 31.032,31.032 v 0 c 0,17.135 -13.897,31.032 -31.032,31.032 v 0 z M 248.545,266.341 c -17.136,0 -31.032,-13.897 -31.032,-31.032 v 0 c 0,-17.136 13.896,-31.032 31.032,-31.032 v 0 h 763.927 c 17.135,0 31.032,13.896 31.032,31.032 v 0 c 0,17.135 -13.897,31.032 -31.032,31.032 v 0 z m 0,-184.652 c -17.136,0 -31.032,-13.896 -31.032,-31.032 v 0 c 0,-17.134 13.896,-31.031 31.032,-31.031 v 0 h 345.613 c 17.135,0 31.032,13.897 31.032,31.031 v 0 c 0,17.136 -13.897,31.032 -31.032,31.032 v 0 z"/>
                    </g>
                </g>
            </g>
        </g>
    </g>
</svg>
